<svg width="28" height="28" viewBox="0 0 28 28" fill="none" xmlns="http://www.w3.org/2000/svg">
<g clip-path="url(#clip0_952_245)">
<path d="M23.8995 18.0786C22.3747 16.5556 20.5597 15.4282 18.5795 14.7457C20.7004 13.2867 22.0938 10.8449 22.0938 8.08395C22.0938 3.62647 18.4629 0 14 0C9.53712 0 5.90625 3.62647 5.90625 8.08395C5.90625 10.8449 7.29963 13.2867 9.42058 14.7457C7.44034 15.4282 5.62538 16.5556 4.10052 18.0786C1.45627 20.7197 0 24.2311 0 27.9661H2.1875C2.1875 21.4605 7.48656 16.1679 14 16.1679C20.5134 16.1679 25.8125 21.4605 25.8125 27.9661H28C28 24.2311 26.5437 20.7197 23.8995 18.0786ZM14 13.983C10.7433 13.983 8.09375 11.3368 8.09375 8.08395C8.09375 4.83114 10.7433 2.18485 14 2.18485C17.2567 2.18485 19.9063 4.83114 19.9063 8.08395C19.9063 11.3368 17.2567 13.983 14 13.983Z" fill="#464646"/>
</g>
<defs>
<clipPath id="clip0_952_245">
<rect width="28" height="27.9661" fill="white"/>
</clipPath>
</defs>
</svg>
